#!OML:ASF F:\VICON\USERDATA\INSTALL\rory3\rory3.ASF
:FULLY-SPECIFIED
:DEGREES
140
root -0.6455620879280384 17.60343083710601 34.701113426763534 0.004745737452253707 5.125524301956634 -2.044655923374372
lfemur -23.850190527006543 0.8162541381779649 -26.35710224452987
ltibia -2.8170739863120247
lfoot 13.89957431234481 -25.990998916578516
ltoes -17.701357435798442
rfemur -0.761523071298086 0.45584219612640875 31.743272524289253
rtibia 36.11817585388824
rfoot 21.523843611020443 1.9290576110757387
rtoes -3.411632577380137
lowerback 1.0 -1.9728526695924182 -1.10584933592989
upperback -0.850693583783105 0.37271872013215634 0.4810128428605056
thorax -9.091717656979615 -0.359351966814531 1.195545135667583
lowerneck -16.230547468993358 -4.43352061801449 -1.8207949287186114
upperneck 14.236772230601208 -4.313371224681928 1.695822708006822
head 7.549591903768264 -2.124356456422332 0.6151203784956981
lclavicle 1.0192662198378137e-14 -1.6301812958348894e-14
lhumerus -63.5911508916828 -4.140153719347925 93.60246878454896
lradius 126.1418319977747
lwrist 41.999614799085045
lhand -30.420049540312142 -3.70339710303153
lfingers nan
lthumb -4.102759613953905 26.02039220965215
rclavicle 1.2157159572454871e-14 -1.4860336776759806e-14
rhumerus -60.34288703007363 5.387647275331406 -93.37265643577071
rradius 123.75795451227236
rwrist -2.5237400383474995
rhand -19.947109260074175 1.0
rfingers nan
rthumb 6.378090486389658 8.732041616056328
141
root -0.6299362660199989 17.540902785123436 36.25642539003298 -0.09359407959509225 5.325763717073936 -1.5323059336133893
lfemur -23.331593094616387 0.05635252689082504 -26.632959915234707
ltibia -0.4525954165972266
lfoot 16.159768206529794 -28.19259975230026
ltoes 2.7474983602131218
rfemur -1.9881375408617998 -1.1205683002930518 30.048766411495176
rtibia 40.13672819186492
rfoot 19.455529205640822 2.386503545935409
rtoes -1.7991434438322371
lowerback 1.0 -2.021735201638614 -1.3504496981762724
upperback -0.5372667268673035 0.08149704387197709 0.3394990166927625
thorax -8.63639886000807 -0.4753514031234017 1.356929648621939
lowerneck -15.403932541277229 -4.516287937166366 -2.0867932737249366
upperneck 13.520842833242865 -4.3921943546925295 2.2317626957918213
head 7.240602353150341 -2.1182846638650656 0.863937063582652
lclavicle 2.6048991116013512e-14 3.856338799157858e-15
lhumerus -62.42651683430876 -4.176461704363904 93.54902635259388
lradius 126.7907275232979
lwrist 41.19583778679621
lhand -30.72837740280909 -4.171005235312476
lfingers nan
lthumb -4.359711896944407 25.52379168610573
rclavicle 2.817553721112538e-14 5.512122190975802e-15
rhumerus -60.64756943119997 4.942540313168631 -92.98237791158783
rradius 122.33037813148943
rwrist 0.005665944634195341
rhand -19.24159652799944 1.0
rfingers nan
rthumb 7.07252932805617 6.996467529510751
142
root -0.6229375334873074 17.487732539193978 36.37736611128256 0.08412488577325794 5.095651412885062 -1.1523893711654543
lfemur -22.149683286815822 -0.021543630492922294 -27.044389348061557
ltibia 2.497714069614233
lfoot 10.460442440929564 -29.27569402500033
ltoes 2.218704452786639
rfemur -3.6478057772843577 -2.3552585932124037 28.132375496687
rtibia 44.14006495529237
rfoot 17.720338033546852 2.304251091050422
rtoes -3.0062495233409634
lowerback 1.0 -1.9685659757088534 -1.766244718155652
upperback -0.1777654609631697 -0.07370314152582558 0.2220835110947854
thorax -7.793587371365258 -0.5193027356357851 1.583509180061439
lowerneck -15.935817331350997 -4.6061575052375625 -2.3899690225763455
upperneck 13.452450760046474 -4.504964009789951 2.901416940254026
head 7.337851987495893 -2.1093875252920617 1.1457559967462019
lclavicle 1.945593079517152e-14 1.2538495485780709e-14
lhumerus -60.8795937025461 -4.24137801345703 93.43327061969623
lradius 127.31676350562938
lwrist 39.60076728436535
lhand -31.139624808186614 -3.541102725431289
lfingers nan
lthumb -4.75641437163983 26.139661452113465
rclavicle 2.207964832921311e-14 1.4521389901397925e-14
rhumerus -60.72423633123941 4.561929407123947 -92.51266007004128
rradius 120.7106373562244
rwrist 1.6476231233561673
rhand -19.13881984541998 1.0
rfingers nan
rthumb 7.162186503443806 6.050809488708829
143
root -0.6327950620886937 17.43358441134489 36.82606286318762 0.23395660819267894 4.360810800626822 -0.9074917475620472
lfemur -21.31411140955658 -0.019903143524418798 -27.236365773688526
ltibia 5.785612261019352
lfoot 7.716816800534004 -28.03308988037596
ltoes 9.773676892475516
rfemur -5.721188885521281 -3.092917332690745 26.33268948437685
rtibia 48.10235690656829
rfoot 16.237057769454477 1.5076400325023824
rtoes -4.086329442444487
lowerback 1.0 -1.805961310636426 -2.2789561722852296
upperback -0.053244130610713425 -0.051903953046477325 0.134096622592073
thorax -7.651888331494612 -0.49628713257975937 1.824227368969526
lowerneck -15.272948431514848 -4.531979147517291 -2.126591523360699
upperneck 12.73646794952352 -4.512483880921514 2.8365081545671007
head 6.982569881635703 -2.093481257237679 1.0972006568069201
lclavicle -1.3977369776617637e-14 -1.039153136855527e-14
lhumerus -59.472220690434824 -4.335654456800693 93.33768855209757
lradius 127.99562026633915
lwrist 37.70829319987602
lhand -31.981004087906175 -2.868285280728867
lfingers nan
lthumb -5.5651744173788265 26.80340858663113
rclavicle -1.0890087906321385e-14 -8.016200635280112e-15
rhumerus -60.88299110699948 4.143923889427735 -92.32089950248228
rradius 118.8935906053051
rwrist 3.80482920935599
rhand -18.883487781129475 1.0
rfingers nan
rthumb 7.3963812846730255 3.9858191467729323
144
root -0.6425110022466358 17.383190069692382 37.27266508139489 0.07592964012336445 3.6725216134904883 -0.8582706391093259
lfemur -20.00620636596351 0.27243426176418173 -27.454522690195198
ltibia 9.170967362623692
lfoot 0.29366814032145605 -24.05276409288724
ltoes 1.168941232713335
rfemur -7.853630488625221 -3.6072616168620435 24.85669797758922
rtibia 51.970628353819606
rfoot 14.923616381164532 0.33283550849775434
rtoes -4.56652834532712
lowerback 1.0 -1.637739487686961 -2.477978333981061
upperback 0.10767548087418477 0.05819769999285018 0.09760495974561878
thorax -7.983904315941666 -0.4417615344419263 1.9468836362034772
lowerneck -14.510707627980015 -4.454709523780912 -1.7261866232954617
upperneck 11.45485677342121 -4.523679429621724 2.606471214925743
head 6.394263036077034 -2.0944812378226905 0.960558749012127
lclavicle 2.7706849078341807e-14 -4.753593638875447e-15
lhumerus -57.96657290058269 -4.503481608932848 93.25484860989772
lradius 128.60234715950853
lwrist 35.52292905577936
lhand -32.47662573318952 -2.5028895653003396
lfingers nan
lthumb -6.049687504956404 27.173478327199437
rclavicle 3.119722284985266e-14 -2.4139976920209968e-15
rhumerus -61.040568575832076 3.706617138944738 -92.08859494320555
rradius 117.03942745571014
rwrist 5.076077838570594
rhand -18.431125187461898 1.0
rfingers nan
rthumb 7.81508458630819 2.3173703715690754
145
root -0.628308821323163 17.335225440172763 37.55718729460319 0.18373576464519425 3.536670209729036 -0.7628121520785212
lfemur -18.811434996346378 -0.20552189861991393 -27.585901769123318
ltibia 11.980054024445785
lfoot -3.0722313573779982 -19.650259461676917
ltoes -2.0475323233636704
rfemur -9.94238732904341 -4.388925131342609 23.362026121924337
rtibia 55.43833134813821
rfoot 13.639600795175788 -0.6236316702917275
rtoes -4.283190746263145
lowerback 1.0 -1.603645414365397 -2.4341760244957493
upperback 0.37031475513605383 0.023833416570708588 0.030258849363403728
thorax -7.509321071309405 -0.47211286595955787 1.976915104494005
lowerneck -14.968758845665398 -4.522714543373601 -1.6523006773922284
upperneck 10.784226065646422 -4.683940128971703 2.8250347725400546
head 6.221416756577279 -2.1256858563942718 1.0122549848139277
lclavicle 3.686343619830773e-15 -1.1263532871588798e-14
lhumerus -56.19136189926189 -4.6157162399292275 93.12852480337563
lradius 128.88918288385395
lwrist 32.63244388637396
lhand -32.63601850285065 -3.4241992416495766
lfingers nan
lthumb -6.22408385762764 26.251340718760108
rclavicle 7.37410306728673e-15 -8.509780109004702e-15
rhumerus -61.08537488725254 3.336939910547663 -91.74038663756843
rradius 115.03469747842244
rwrist 5.540141417029417
rhand -18.249451717341515 1.0
rfingers nan
rthumb 7.960143158841373 2.4683631284170886
